<svg xmlns="http://www.w3.org/2000/svg" viewBox="0 0 32 32" width="32" height="32">
  <defs>
    <linearGradient id="brandGrad" x1="0%" y1="0%" x2="100%" y2="100%">
      <stop offset="0%" stop-color="#1D4ED8" />
      <stop offset="100%" stop-color="#0F766E" />
    </linearGradient>
  </defs>
  <rect width="32" height="32" rx="8" fill="url(#brandGrad)" />
  <path d="M16 8C13 8 11 10 11 13C11 17.5 16 23 16 23C16 23 21 17.5 21 13C21 10 19 8 16 8ZM16 15C14.9 15 14 14.1 14 13C14 11.9 14.9 11 16 11C17.1 11 18 11.9 18 13C18 14.1 17.1 15 16 15Z" fill="#FFFFFF" />
  <circle cx="16" cy="13" r="1.5" fill="#1D4ED8" />
</svg>
